<svg version="1.2" xmlns="http://www.w3.org/2000/svg" viewBox="0 0 750 471" width="750" height="471">
	<title>applepay-svg</title>
	<style>
		.s0 { fill: #000000 } 
	</style>
	<g id="Layer 1">
		<path id="Layer" fill-rule="evenodd" class="s0" d="m93.4 1q-6.5 0-13 0.1c-4.6 0.1-9 0.5-13.4 1.3l0.5-0.1c-13.3 2.3-24.3 11.2-30.1 23.3l-0.1 0.2c-1.9 3.8-3.3 8.2-4 12.9v0.2c-0.8 4.1-1.2 8.9-1.2 13.7q-0.1 3.2-0.1 6.4v352c0 2.2 0 4.2 0.1 6.4q0.1 7.3 1.2 14.3l-0.1-0.6c0.9 4.9 2.2 9.3 4.2 13.4l-0.1-0.3c4 8.3 10.2 14.9 17.7 19.1l0.3 0.1c3.5 2 7.6 3.5 12 4.3h0.2c3.9 0.8 8.3 1.2 12.8 1.3h0.1l5.9 0.1 582.3-0.1q6.9-0.1 13.4-1.3h-0.5c4.6-0.8 8.7-2.3 12.5-4.4l-0.3 0.2c7.9-4.3 14-10.9 18-19l0.1-0.3c1.8-3.8 3.2-8.1 4-12.8v-0.2c0.7-4.1 1.1-8.9 1.2-13.7 0-2.2 0-4.2 0-6.4l0.1-7.5v-344.6c0-2.1-0.1-4.2-0.1-6.3q-0.2-7.3-1.3-14.3l0.1 0.6c-2.9-18.9-16.6-33.5-34-36.6h-0.2c-3.9-0.7-8.3-1.2-12.9-1.2q-6.5-0.2-13-0.1zm0 15.6h569.3c1.8 0 3.7 0 5.6 0.1q5.7 0.1 11.1 1l-0.4-0.1c3 0.6 5.8 1.6 8.3 3l-0.1-0.1c5 2.8 9 7 11.5 12.3l0.1 0.1c1.2 2.5 2.2 5.5 2.6 8.6l0.1 0.2c0.5 3.4 0.8 7.3 0.9 11.3v0.1c0 2 0 3.9 0 6v351.9c0 2 0 3.9 0 6q-0.1 6.1-1 11.8v-0.4c-1.3 9.3-6.7 17-14.1 21l-0.1 0.1c-2.4 1.3-5.1 2.3-8 2.8l-0.2 0.1c-3.2 0.5-6.8 0.9-10.6 0.9l-5.7 0.1h-576.2c-1.9 0-3.8 0-5.6-0.1q-5.7 0-11.1-1l0.4 0.1c-3.1-0.6-5.9-1.6-8.4-3l0.1 0.1c-5-2.8-9-7-11.5-12.3v-0.1c-1.3-2.5-2.2-5.5-2.7-8.6v-0.2c-0.6-3.4-0.9-7.3-0.9-11.3q-0.1-3-0.1-6v-351.9c0-2 0-4 0.1-6 0-4.1 0.4-8.1 1-12l-0.1 0.5c0.5-3.3 1.5-6.2 2.8-8.9l-0.1 0.2c2.6-5.4 6.6-9.6 11.4-12.3l0.2-0.1c2.4-1.2 5.1-2.2 8-2.8h0.2c3.2-0.6 6.9-0.9 10.6-1h0.1c1.8-0.1 3.7-0.1 5.6-0.1zm365.9 168.7c-28.3 0-45.9 16.2-47.2 38.2h22.2c2.3-10.4 11-18 21.3-18q1.5 0 2.9 0.2h-0.1c14.3 0 22.9 8.1 22.9 21.7v9.4l-31.3 1.9c-27.1 1.7-42.5 14.8-42.5 36.1 0.1 20.4 15.5 37 34.7 37q1.8 0 3.5-0.2h-0.1c0.1 0 0.3 0 0.5 0 15.2 0 28.4-8.8 35.4-22l0.2-0.2h0.5v20.1h22.5v-84.1c0-24.4-17.7-40.1-45.4-40.1zm-234.2-12.1c-12.8 0.3-23.7 8.5-30 8.5-6.7 0-16.9-8-28-7.8-15 0.4-28.1 9.4-35 22.5l-0.1 0.2c-4.1 10.5-6.5 22.7-6.5 35.5 0 21 6.5 40.4 17.3 56l-0.1-0.2c7.1 11.1 15.7 23.4 26.9 22.9 10.7-0.4 14.9-7.3 27.8-7.3 13 0 16.7 7.3 28 7.1 11.7-0.2 19-11.1 26.1-22.3 4.8-7.4 8.8-15.8 11.5-24.9l0.2-0.7c-13.4-6.4-22.6-20.5-22.8-36.8 0.2-14.6 7.5-27.3 18.3-34.5l0.1-0.1c-7-10.6-18.2-17.5-31-18.1h-0.1q-1.3-0.1-2.6 0zm65.7-31.1v167.4h24.3v-57.2h33.7c0.8 0 1.7 0 2.7 0 27.5 0 49.7-23.7 49.7-53q0-1.2 0-2.3v0.1c0-0.8 0.1-1.7 0.1-2.6 0-29-22.1-52.5-49.2-52.5q-1.4 0-2.6 0.1h0.1zm24.3 21.9h28c1.2-0.2 2.6-0.3 4-0.3 16.1 0 29.2 14 29.2 31.2q0 1.2-0.1 2.4v-0.1c0.1 0.6 0.1 1.4 0.1 2.2 0 17.3-13.1 31.3-29.3 31.3q-2.1 0-4.2-0.3l0.2 0.1h-27.9zm-87.3-34.7c-10.1 1-18.9 6.2-25.1 13.8l-0.1 0.1c-5.6 6.7-9.1 15.6-9.1 25.4 0 0.9 0.1 1.8 0.1 2.6v-0.1q0.3 0 0.6 0c10 0 18.9-4.9 24.7-12.7h0.1c5.5-7.1 8.9-16.2 8.9-26.2q0-1.6-0.2-3.1c0 0 0 0.2 0.1 0.2zm253.5 124.8v9.6c-0.7 15.6-12.7 28-27.4 28-0.6 0-1.3 0-1.9-0.1h0.1c-12.6 0-20.9-6.9-20.9-17.6 0-10.4 7.9-17.1 22-18.1zm33.3-66.7l41.2 122.2c0 0.1-2 7.3-2 7.5-1.4 9.9-9.3 17.5-18.9 17.5q-0.7 0-1.5-0.1h0.1c-0.4 0-0.9 0-1.4 0q-3.3 0-6.5-0.5h0.3v20.3c2.8 0.3 6.1 0.6 9.5 0.6 23.7 0 35-9.5 44.7-39.1l42.9-128.4h-24.8l-28.9 99.3h-0.5l-28.9-99.3z"/>
	</g>
</svg>