<svg width="15" height="10" viewBox="0 0 15 10" fill="none" xmlns="http://www.w3.org/2000/svg">
<path d="M7.14899 9.84661L0.339645 2.23895C0.161264 2.03956 0.0476132 1.79697 0.012012 1.53959C-0.0235893 1.28222 0.0203325 1.02074 0.138631 0.785771C0.256929 0.550807 0.444705 0.3521 0.679953 0.212932C0.915201 0.0737651 1.18818 -9.72543e-05 1.4669 9.61065e-08L13.5349 9.61065e-08C13.8135 0.000226923 14.0862 0.0743245 14.3212 0.213619C14.5562 0.352914 14.7437 0.551641 14.8618 0.786543C14.9798 1.02144 15.0236 1.2828 14.9879 1.54002C14.9523 1.79723 14.8386 2.03967 14.6604 2.23895L7.85284 9.84661C7.80983 9.89462 7.75602 9.93325 7.69521 9.95975C7.63439 9.98626 7.56806 10 7.50092 10C7.43377 10 7.36744 9.98626 7.30663 9.95975C7.24581 9.93325 7.192 9.89462 7.14899 9.84661Z" fill="#B50027"/>
</svg>
