<svg version="1.2" xmlns="http://www.w3.org/2000/svg" viewBox="0 0 750 471" width="750" height="471">
	<title>googlepay-svg</title>
	<style>
		.s0 { fill: #000000 } 
	</style>
	<g id="Layer 1">
		<path id="Layer" fill-rule="evenodd" class="s0" d="m530.1 169.2c-1.2 0-2.5-0.1-3.9-0.1-22.9 0-43.1 11.3-55.3 28.7l-0.2 0.2 24.3 15.4c7.7-11.9 20.8-19.6 35.7-19.6q0.5 0 1 0.1h-0.1q0.3 0 0.5 0c10.1 0 19.3 3.8 26.2 10.1v-0.1c7 5.8 11.4 14.5 11.4 24.3q0 0.1 0 0.2v6.3c-10.8-5.7-23.7-9.1-37.3-9.1q-1.7 0-3.4 0.1h0.2c-1.1-0.1-2.4-0.1-3.7-0.1-15.9 0-30.6 5.1-42.6 13.7l0.2-0.1c-10.5 8-17.3 20.6-17.3 34.7q0 0.9 0.1 1.7v-0.1q0 0.4 0 0.8c0 14.1 6.3 26.7 16.3 35.2 10.4 9 24 14.5 38.9 14.5q0.9 0 1.9-0.1h-0.1q0.3 0 0.7 0c18.9 0 35.5-10 44.8-25l0.2-0.2h1.1v20.4h26.5v-90.6c0-0.9 0-2 0-3 0-16.5-6.8-31.3-17.7-41.9-11.9-10.2-27.5-16.4-44.6-16.4q-2 0-4 0.1c0 0 0.2 0 0.2-0.1zm70.5 4.8l60.7 137.8-34.3 74.2h28.5l92.2-212h-30l-42.6 105.6h-0.7l-43.8-105.6zm-66.8 73.8c1-0.1 2.2-0.1 3.4-0.1 12.2 0 23.5 3.9 32.7 10.5l-0.1-0.1c0 12.1-5.3 22.9-13.7 30.3-8 8-19 12.9-31.1 12.9q-0.3 0-0.7 0c-7.9 0-15.1-2.7-20.9-7.3l0.1 0.1c-5.6-4.1-9.1-10.6-9.1-17.9q0-0.1 0-0.1c0.1-8.5 4.5-15.9 11.2-20.1l0.1-0.1c7.4-5.1 16.5-8.1 26.3-8.1q0.9 0 1.8 0c0 0-0.1 0 0 0zm-207.8-141.6v214.9h27.6v-87h45.7c0.5 0 1.1 0 1.7 0 17.7 0 33.8-7 45.7-18.4 12.2-11.4 19.8-27.5 19.8-45.4 0-18-7.6-34.2-19.7-45.5h-0.1c-11.9-11.6-28.1-18.7-46-18.7q-0.7 0-1.5 0.1h0.1zm75.6 26.4c10.1 0.2 19.2 4.5 25.6 11.4h0.1c6.6 6.8 10.7 16 10.7 26.3 0 20.6-16.7 37.3-37.4 37.3q-0.3 0-0.7 0h-46.3v-75h46.3q0.9 0 1.7 0zm-278.1-43.6c-68.2 0-123.5 55.3-123.5 123.5 0 68.2 55.3 123.5 123.5 123.5 0.9 0 2.1 0 3.3 0 30.2 0 57.7-11.3 78.6-29.9l-0.1 0.1c22.7-22 36.8-52.8 36.8-86.9q0-2.1 0-4.2v0.2c0-8.9-0.8-17.6-2.3-26l0.1 0.9h-116.4v47.5h66.6c-2.9 15.8-11.9 29-24.4 37.5l-0.2 0.1c-11.4 7.5-25.4 12-40.5 12-41.3 0-74.7-33.5-74.7-74.7 0-40.8 32.6-73.9 73.1-74.7h0.1c0.3 0 0.7 0 1 0 18 0 34.3 7 46.3 18.5l35.3-35.2c-21.2-19.9-49.8-32.2-81.3-32.2q-0.7 0-1.4 0c0 0 0.1 0 0.1 0z"/>
	</g>
</svg>