<svg version="1.2" xmlns="http://www.w3.org/2000/svg" viewBox="0 0 750 471" width="750" height="471">
	<title>paypal-svgrepo-com (1)-svg</title>
	<style>
		.s0 { fill: #003087 } 
		.s1 { fill: #009cde } 
	</style>
	<g id="Layer">
		<g id="Folder 1">
			<path id="Layer" class="s0" d="m151.4 159.9q-12.6-8.7-32.9-8.7h-52.3q-6.3 0-6.9 6.2l-21.3 133.5q-0.3 1.9 1 3.6 1.3 1.6 3.3 1.6h24.8q6.6 0 7.2-6.2l5.9-36q0.3-2.6 2.3-4.2 2-1.7 4.9-2.2 3-0.5 5.6-0.5 2.6 0 6.2 0.4 3.6 0.3 4.6 0.3 28.1 0 44.1-15.9 16.1-15.8 16.1-44 0-19.3-12.6-27.9zm-27 40q-1.6 11.5-8.5 15.1-6.9 3.6-19.6 3.6l-10.8 0.3 5.5-35q0.7-3.6 4.3-3.6h6.2q13.1 0 19 3.8 5.9 3.7 3.9 15.8z"/>
			<path id="Layer" class="s1" d="m703.8 151.2h-24.2q-3.6 0-4.3 3.6l-21.2 136.1-0.4 0.6q0 1.7 1.3 3.1 1.4 1.5 3.3 1.5h21.6q6.2 0 6.9-6.2l21.2-133.8v-0.3q0-4.6-4.2-4.6z"/>
			<path id="Layer" class="s0" d="m411.3 203.9q0-1.7-1.3-3.2-1.3-1.4-2.9-1.4h-25.2q-3.6 0-5.9 3.2l-34.7 51.1-14.4-49.1q-1.6-5.2-7.2-5.2h-24.5q-1.7 0-3 1.4-1.3 1.5-1.3 3.2 0 0.6 6.4 19.3 6.4 18.6 13.7 40.2 7.4 21.6 7.7 22.9-26.8 36.6-26.8 39.3 0 4.2 4.2 4.2h25.2q3.6 0 5.9-3.3l83.5-120.4q0.6-0.6 0.6-2.2z"/>
			<path id="Layer" class="s1" d="m645.9 199.3h-24.9q-4.6 0-5.5 10.8-8.5-13.1-31.1-13.1-23.6 0-40.1 17.7-16.5 17.6-16.5 41.5 0 19.3 11.3 30.8 11.3 11.4 30.2 11.4 9.5 0 19.3-3.9 9.8-3.9 15.4-10.5 0 0.3-0.6 3-0.7 2.6-0.7 3.9 0 5.2 4.3 5.2h22.5q6.2 0 7.2-6.2l13.4-85.4q0.4-2-0.9-3.6-1.4-1.6-3.3-1.6zm-42.7 64.4q-8.3 8.2-20.1 8.2-9.5 0-15.4-5.2-5.9-5.3-5.9-14.4 0-12.1 8.2-20.5 8.2-8.3 20.3-8.3 9.1 0 15.2 5.4 6 5.4 6 14.9 0 11.8-8.3 19.9z"/>
			<path id="Layer" class="s0" d="m274.2 199.3h-24.8q-4.6 0-5.6 10.8-8.8-13.1-31.1-13.1-23.5 0-40.1 17.7-16.5 17.6-16.5 41.5 0 19.3 11.3 30.8 11.3 11.4 30.3 11.4 9.1 0 18.9-3.9 9.9-3.9 15.8-10.5-1.4 3.9-1.4 6.9 0 5.2 4.3 5.2h22.6q6.2 0 7.2-6.2l13.4-85.4q0.3-2-1-3.6-1.3-1.6-3.3-1.6zm-42.7 64.6q-8.3 8-20.4 8-9.5 0-15.2-5.2-5.8-5.3-5.8-14.4 0-12.1 8.2-20.5 8.2-8.3 20.3-8.3 9.2 0 15.2 5.4 6.1 5.4 6.1 14.9 0 12.1-8.4 20.1z"/>
			<path id="Layer" class="s1" d="m523 159.9q-12.6-8.7-32.8-8.7h-52.1q-6.5 0-7.2 6.2l-21.2 133.5q-0.4 1.9 1 3.6 1.3 1.6 3.2 1.6h26.9q3.9 0 5.2-4.2l5.9-38q0.3-2.6 2.3-4.2 1.9-1.7 4.9-2.2 2.9-0.5 5.5-0.5 2.7 0 6.3 0.4 3.6 0.3 4.5 0.3 28.2 0 44.2-15.9 16-15.8 16-44 0-19.3-12.6-27.9zm-33.5 53.8q-7.2 4.9-21.6 4.9l-10.5 0.3 5.6-35q0.7-3.6 4.3-3.6h5.8q7.2 0 11.5 0.7 4.2 0.6 8.2 4 3.9 3.5 3.9 10 0 13.8-7.2 18.7z"/>
		</g>
	</g>
</svg>