<svg version="1.2" xmlns="http://www.w3.org/2000/svg" viewBox="0 0 750 471" width="750" height="471">
	<title>unionpay-svg</title>
	<style>
		.s0 { fill: #dd2423 } 
		.s1 { fill: #16315e } 
		.s2 { fill: #036862 } 
		.s3 { fill: #fefefe } 
	</style>
	<g id="Layer">
		<path id="Layer" fill-rule="evenodd" class="s0" d="m169.1 1.1h169.9c23.8 0 38.5 21.3 33 47.5l-79.2 374c-5.5 26.1-29.3 47.4-53 47.4h-170c-23.7 0-38.5-21.3-32.9-47.4l79.1-374c5.6-26.2 29.3-47.5 53.1-47.5z"/>
		<path id="Layer" fill-rule="evenodd" class="s1" d="m324.9 1.1h195.4c23.8 0 13.1 21.3 7.5 47.5l-79.1 374c-5.6 26.1-3.9 47.4-27.6 47.4h-195.5c-23.8 0-38.5-21.3-32.9-47.4l79.1-374c5.7-26.2 29.3-47.5 53.1-47.5z"/>
		<path id="Layer" fill-rule="evenodd" class="s2" d="m512.6 1.1h170c23.7 0 38.5 21.3 32.9 47.5l-79.1 374c-5.6 26.1-29.4 47.4-53.1 47.4h-169.9c-23.8 0-38.5-21.3-33-47.4l79.2-374c5.5-26.2 29.2-47.5 53-47.5z"/>
		<path id="Layer" fill-rule="evenodd" class="s3" d="m213.5 121c-17.5 0.2-22.7 0-24.3-0.5-0.7 3.4-12.5 63.3-12.5 63.3-2.5 12.1-4.4 20.8-10.7 26.3-3.5 3.3-7.7 4.8-12.5 4.8-7.8 0-12.3-4.2-13-12.2l-0.2-2.8c0 0 2.4-16.2 2.4-16.3 0 0 12.4-54.6 14.6-61.8 0.1-0.4 0.1-0.6 0.2-0.8-24.1 0.2-28.4 0-28.7-0.5-0.2 0.6-0.8 4-0.8 4l-12.6 61.5-1.1 5.3-2.1 17c0 5.1 0.9 9.2 2.7 12.7 5.8 11.1 22.2 12.7 31.5 12.7 12 0 23.2-2.8 30.8-7.9 13.2-8.5 16.6-21.9 19.7-33.8l1.4-6.1c0 0 12.8-56.7 14.9-64.1 0.1-0.4 0.1-0.6 0.3-0.8zm43.3 45.7c-3 0-8.7 0.8-13.7 3.5-1.8 1.1-3.6 2.3-5.4 3.5l1.7-6.6-0.9-1.1c-10.7 2.4-13.1 2.7-23 4.2l-0.9 0.7c-1.1 10.4-2.1 18.3-6.4 38.9-1.6 7.6-3.3 15.2-5 22.8l0.5 1c10.1-0.6 13.2-0.6 22-0.5l0.7-0.8c1.1-6.3 1.3-7.8 3.8-20.6 1.1-6 3.5-19.3 4.7-24.1 2.2-1.1 4.4-2.2 6.5-2.2 4.9 0 4.3 4.7 4.1 6.6-0.2 3.2-2 13.6-3.8 22.4l-1.3 5.8c-0.8 4.2-1.8 8.3-2.6 12.5l0.4 0.9c9.9-0.6 13-0.6 21.5-0.5l1-0.8c1.6-9.9 2-12.5 4.7-26.8l1.4-6.6c2.7-12.9 4-19.5 2-24.8-2.1-6-7.3-7.4-12-7.4zm48.5 13.5c-5.3 1.1-8.7 1.9-12.1 2.4-3.3 0.5-6.5 1.1-11.7 1.9l-0.4 0.4-0.3 0.3c-0.6 4.2-1 7.8-1.7 12.1-0.6 4.4-1.5 9.4-3 16.7-1.2 5.5-1.8 7.4-2.4 9.4-0.7 1.9-1.4 3.8-2.7 9.2l0.3 0.5 0.3 0.5c4.8-0.3 7.9-0.5 11.1-0.5 3.2-0.1 6.6 0 11.7 0l0.5-0.4 0.5-0.4c0.7-4.9 0.8-6.2 1.3-8.6 0.4-2.6 1.2-6.1 3.1-15.6 0.9-4.4 1.9-8.9 2.9-13.4 1-4.6 2-9 2.9-13.5l-0.1-0.5zm0.1-18.2c-4.8-3.1-13.3-2.1-19 2.2-5.7 4.2-6.3 10.2-1.5 13.4 4.7 3.1 13.2 2.2 18.9-2.2 5.7-4.3 6.4-10.3 1.6-13.4zm29.2 72.6c9.7 0 19.7-3 27.3-11.8 5.8-7.1 8.4-17.7 9.3-22.1 3-14.4 0.7-21.2-2.2-25.3-4.5-6.3-12.4-8.3-20.5-8.3-4.9 0-16.6 0.5-25.7 9.8-6.6 6.7-9.6 15.8-11.4 24.4-1.9 8.9-4 24.8 9.3 30.8 4.1 1.9 10.1 2.5 13.9 2.5zm-0.8-32.6c2.3-10.9 4.9-20.1 11.7-20.1 5.3 0 5.7 6.8 3.3 17.8-0.4 2.4-2.3 11.5-5 15.4-1.8 2.8-4 4.5-6.3 4.5-0.8 0-5 0-5.1-6.9 0-3.4 0.6-6.9 1.4-10.7zm61.8 31.1l0.8-0.8c1.1-6.3 1.2-7.8 3.6-20.6 1.2-6 3.7-19.3 4.9-24.1 2.2-1.1 4.3-2.2 6.4-2.2 4.9 0 4.3 4.7 4.2 6.6-0.2 3.2-2 13.6-3.9 22.4l-1.2 5.8c-0.9 4.2-1.8 8.3-2.7 12.5l0.4 0.9c10-0.6 12.9-0.6 21.5-0.5l1-0.8c1.6-9.9 2-12.5 4.8-26.8l1.3-6.6c2.7-12.9 4.1-19.5 2.1-24.8-2.2-6-7.4-7.4-12-7.4-3.1 0-8.8 0.8-13.8 3.5-1.8 1.1-3.6 2.3-5.3 3.5l1.5-6.6-0.8-1.1c-10.7 2.4-13.2 2.7-23 4.2l-0.8 0.7c-1.2 10.4-2.2 18.3-6.4 38.9-1.6 7.6-3.3 15.2-5 22.8l0.5 1c10.1-0.6 13.1-0.6 21.9-0.5zm73.6 0.5c0.6-3.4 4.4-23.5 4.4-23.5 0 0 3.2-14.7 3.4-15.2 0 0 1-1.5 2-2.2h1.5c13.9 0 29.6 0 41.9-9.9 8.4-6.9 14.1-17 16.7-29.2 0.7-3.1 1.1-6.6 1.1-10.2 0-4.7-0.8-9.4-3.3-13-6.3-9.7-18.8-9.9-33.2-9.9-0.1 0-7.1 0-7.1 0-18.5 0.3-25.9 0.2-29-0.2-0.2 1.5-0.7 4.1-0.7 4.1 0 0-6.6 33.8-6.6 33.9 0 0-15.9 71.8-16.6 75.2 16.1-0.3 22.7-0.3 25.5 0.1zm12.3-60c0 0 7-33.7 7-33.6l0.2-1.7 0.1-1.3 2.8 0.3c0 0 14.5 1.3 14.9 1.4 5.7 2.4 8.1 8.7 6.4 16.9-1.5 7.5-5.9 13.8-11.6 16.9-4.7 2.6-10.4 2.8-16.3 2.8h-3.8zm43.8 29c-1.8 8.8-4 24.7 9.3 30.4 4.2 2 8 2.5 11.8 2.3 4.1-0.2 7.9-2.5 11.3-5.7q-0.4 2-0.9 4l0.6 0.9c9.5-0.5 12.5-0.5 22.8-0.4l1-0.8c1.5-9.7 2.9-19.2 6.8-37.9 1.9-8.9 3.8-17.8 5.8-26.7l-0.3-1c-10.7 2.2-13.5 2.7-23.8 4.3l-0.8 0.7q-0.1 1.3-0.3 2.6c-1.6-2.8-3.9-5.2-7.5-6.8-4.5-1.9-15.2 0.6-24.4 9.8-6.5 6.6-9.6 15.7-11.4 24.3zm22.4 0.6c2.3-10.8 4.9-19.9 11.7-19.9 4.3 0 6.6 4.4 6.1 11.8-0.4 1.9-0.8 3.8-1.2 6-0.7 3.2-1.4 6.4-2.2 9.6-0.7 2.1-1.5 4.2-2.5 5.6-1.7 2.7-5.9 4.4-8.3 4.4-0.6 0-4.8 0-5-6.8 0-3.4 0.6-6.9 1.4-10.7zm117-35.6l-0.9-1c-10.5 2.4-12.4 2.7-22.1 4.2l-0.7 0.8c-0.1 0.1-0.1 0.3-0.1 0.5l-0.1-0.2c-7.2 18.3-7 14.4-12.9 28.8 0-0.7 0-1.1 0-1.8l-1.5-31.3-0.9-1c-11.1 2.4-11.3 2.7-21.5 4.2l-0.8 0.8c-0.1 0.3-0.1 0.7-0.2 1.2l0.1 0.1c1.2 7.2 0.9 5.6 2.2 17 0.6 5.5 1.4 11.1 2 16.6 1 9.2 1.6 13.7 2.8 27.7-6.9 12.6-8.5 17.3-15.2 28.3l0.1 0.1-4.7 8.1c-0.5 0.9-1 1.5-1.7 1.7-0.7 0.4-1.7 0.5-3.1 0.5h-2.5l-3.9 14.1 13.2 0.2c7.8 0 12.6-4 15.3-9.3l8.3-15.7h-0.2l0.9-1.1c5.6-13.2 48.1-93.5 48.1-93.5zm-139.4 185.1h-5.6l20.7-75.5h6.9l2.2-7.7 0.2 8.6c-0.2 5.3 3.6 10.1 13.6 9.3h11.6l4-14.5h-4.4c-2.5 0-3.6-0.7-3.5-2.2l-0.2-8.8h-21.5c-6.9 0.2-27.7 0.8-31.9 2-5.1 1.4-10.4 5.7-10.4 5.7l2.1-7.8h-20.1l-4.2 15.4-21 76.7h-4.1l-4 14.4h40l-1.3 4.8h19.7l1.3-4.8h5.6zm-16.5-60.2c-3.2 1-9.2 4-9.2 4l5.4-19.3h15.9l-3.8 14.1c0 0-4.9 0.3-8.3 1.2zm0.4 27.6c0 0-5.1 0.7-8.4 1.5-3.2 1.1-9.3 4.5-9.3 4.5l5.5-20h16zm-8.9 32.7h-16l4.6-16.9h16zm38.6-46.8h23.1l-3.4 11.8h-23.4l-3.5 12.9h20.5l-15.5 24c-1.1 1.8-2.1 2.4-3.1 2.9-1.1 0.6-2.6 1.4-4.2 1.4h-5.7l-3.9 14.1h14.9c7.7 0 12.3-3.9 15.6-8.9l10.7-16 2.2 16.2c0.5 3.1 2.5 4.8 3.9 5.5 1.4 0.9 3 2.3 5.2 2.5 2.3 0.1 4 0.2 5.1 0.2h7.3l4.4-15.9h-2.9c-1.7 0-4.5-0.3-5-0.8-0.5-0.7-0.5-1.8-0.7-3.4l-2.4-16.3h-9.4l4.1-5.5h23.4l3.6-12.9h-21.7l3.4-11.8h21.6l4-14.6h-64.3zm-195 50.1l5.4-19.8h22.1l4.1-14.6h-22.2l3.4-12.2h21.6l4-14.2h-54.2l-3.9 14.2h12.3l-3.3 12.2h-12.3l-4.1 14.9h12.3l-7.2 26.1c-0.9 3.5 0.5 4.8 1.4 6.4 0.9 1.5 1.8 2.6 3.9 3.2 2.2 0.5 3.7 0.8 5.7 0.8h25l4.4-16.2-11 1.6c-2.2 0-8.1-0.2-7.4-2.4zm2.5-94.5l-5.6 11.2c-1.2 2.4-2.3 3.9-3.3 4.6-0.8 0.6-2.5 0.8-5 0.8h-2.9l-3.9 14.3h9.7c4.7 0 8.3-1.9 10-2.8 1.8-1.1 2.3-0.5 3.7-2l3.3-3.1h30.4l4-14.9h-22.2l3.9-8.1zm44.8 94.8c-0.5-0.9-0.1-2.3 0.7-5.3l8.3-30.3h29.5c4.3 0 7.4-0.1 9.4-0.2 2.2-0.3 4.6-1.1 7.1-2.7 2.7-1.6 4.1-3.3 5.2-5.2 1.3-2 3.3-6.2 5.1-12.7l10.4-38.3-30.6 0.2c0 0-9.4 1.5-13.6 3.2-4.2 1.9-10.2 7.2-10.2 7.2l2.8-10.5h-19l-26.5 96.7c-0.9 3.8-1.5 6.5-1.7 8.2 0 1.7 2.1 3.5 3.4 4.8 1.6 1.3 3.9 1.1 6.2 1.3 2.3 0.2 5.7 0.3 10.3 0.3h14.6l4.5-16.6-13.1 1.4c-1.4 0-2.4-0.8-2.8-1.5zm14.3-56h31l-1.9 6.8c-0.3 0.2-1-0.3-4.1 0.1h-26.9zm6.2-22.8h31.3l-2.2 8.2c0 0-14.8-0.2-17.1 0.3-10.4 2-16.5 8.1-16.5 8.1zm23.5 52.4c-0.2 1-0.6 1.6-1.2 2.1-0.6 0.4-1.7 0.6-3.2 0.6h-4.4l0.3-8.3h-18.4l-0.8 40.5c0 2.9 0.3 4.6 2.2 6 2 1.7 7.9 1.9 16 1.9h11.5l4.2-15.2-10.1 0.6-3.3 0.2c-0.4-0.2-0.9-0.4-1.4-0.9-0.4-0.5-1.1-0.2-1-3.1l0.1-10.4 10.5-0.5c5.7 0 8.1-2 10.2-3.9 2-1.9 2.6-4 3.4-6.9l1.7-9.2h-14.4z"/>
	</g>
</svg>