<svg version="1.2" xmlns="http://www.w3.org/2000/svg" viewBox="0 0 750 471" width="750" height="471">
	<title>wechat-pay-fill-svgrepo-com-svg</title>
	<style>
		.s0 { fill: none } 
		.s1 { fill: #000000 } 
	</style>
	<g id="Layer">
		<path id="Layer" fill-rule="evenodd" class="s0" d="m66-85h622.1v622.1h-622.1z"/>
		<path id="Layer" fill-rule="evenodd" class="s1" d="m306.3 295.2c-2 1-4.1 1.6-6.3 1.8-2.2 0.2-4.4 0-6.5-0.7-2.1-0.6-4.1-1.6-5.8-3-1.7-1.4-3.2-3.1-4.2-5.1l-1.1-2.4-47.2-103.6q0-0.5-0.1-1 0-0.5 0-0.9 0-0.5 0-1 0.1-0.4 0.1-0.9c0-1.1 0.3-2.3 0.7-3.3 0.4-1 1.1-2 1.9-2.8 0.8-0.8 1.7-1.4 2.8-1.8 1.1-0.4 2.2-0.6 3.3-0.6q0.7 0 1.4 0.1 0.7 0.1 1.3 0.3 0.7 0.2 1.3 0.6 0.6 0.3 1.1 0.7l56.5 39.6q1.6 1 3.3 1.8 1.7 0.8 3.5 1.4 1.8 0.5 3.6 0.8 1.9 0.3 3.8 0.3 1.1 0 2.2-0.1 1.2-0.1 2.3-0.3 1.1-0.2 2.2-0.5 1.1-0.4 2.1-0.8l260.4-116.6c-13.3-14.7-28.1-28-44.3-39.5-16.1-11.6-33.4-21.4-51.6-29.2-18.3-7.9-37.3-13.8-56.7-17.6-19.5-3.8-39.3-5.5-59.2-5.1-143.2 0-259.3 96.7-259.3 216.9 0.5 16.1 2.8 32.1 7 47.7 4.2 15.6 10.3 30.6 18.1 44.8 7.7 14.1 17.2 27.3 28.1 39.2 10.9 11.9 23.1 22.5 36.5 31.5q2.2 1.5 3.7 3.7 1.6 2.2 2.4 4.7 0.9 2.5 0.9 5.2 0 2.7-0.8 5.2l-11.6 44.1q-0.3 0.7-0.5 1.5-0.2 0.8-0.4 1.6-0.2 0.7-0.3 1.5-0.1 0.8-0.1 1.6c-0.1 1.2 0.1 2.3 0.6 3.4 0.4 1 1 2 1.8 2.8 0.8 0.8 1.8 1.4 2.9 1.9 1 0.4 2.2 0.6 3.3 0.6q0.7-0.1 1.3-0.2 0.6-0.1 1.3-0.3 0.6-0.2 1.2-0.4 0.6-0.3 1.1-0.6l56.5-32.8c4.2-2.6 8.9-3.9 13.8-4 2.6 0 5.1 0.4 7.5 1.2 27.6 7.7 56 11.7 84.7 11.6 143.2 0 259.4-96.6 259.4-215.9 0.1-8.8-0.5-17.7-1.7-26.4-1.1-8.8-2.9-17.4-5.3-25.9-2.4-8.5-5.4-16.9-9-24.9-3.6-8.1-7.7-15.9-12.4-23.4l-299.4 172.4z"/>
	</g>
</svg>